<svg xmlns="http://www.w3.org/2000/svg" xmlns:xlink="http://www.w3.org/1999/xlink" width="2000" zoomAndPan="magnify" viewBox="0 0 1500 1499.999933" height="2000" preserveAspectRatio="xMidYMid meet" version="1.0"><defs><clipPath id="db74d8d4a9"><path d="M 35.597656 201.59375 L 1464.34375 201.59375 L 1464.34375 1349.84375 L 35.597656 1349.84375 Z M 35.597656 201.59375 " clip-rule="nonzero"/></clipPath><clipPath id="9c11f740e0"><path d="M 373.0625 271.808594 L 494 271.808594 L 494 391.808594 L 373.0625 391.808594 Z M 373.0625 271.808594 " clip-rule="nonzero"/></clipPath><clipPath id="3340135ae8"><path d="M 400 271.808594 L 467 271.808594 L 467 391.808594 L 400 391.808594 Z M 400 271.808594 " clip-rule="nonzero"/></clipPath><clipPath id="3ebb21b75d"><path d="M 429 271.808594 L 437 271.808594 L 437 391.808594 L 429 391.808594 Z M 429 271.808594 " clip-rule="nonzero"/></clipPath><clipPath id="564be013d4"><path d="M 438 350 L 478 350 L 478 391.808594 L 438 391.808594 Z M 438 350 " clip-rule="nonzero"/></clipPath></defs><g clip-path="url(#db74d8d4a9)"><path fill="#000000" d="M 1464.15625 436.324219 L 1464.15625 273.109375 C 1464.15625 233.652344 1432.046875 201.550781 1392.585938 201.550781 L 107.058594 201.550781 C 67.597656 201.550781 35.492188 233.652344 35.492188 273.109375 L 35.492188 1278.332031 C 35.492188 1317.789062 67.597656 1349.890625 107.058594 1349.890625 L 1392.585938 1349.890625 C 1432.046875 1349.890625 1464.15625 1317.789062 1464.15625 1278.332031 L 1464.15625 507.472656 C 1464.15625 497.703125 1456.234375 489.78125 1446.460938 489.78125 C 1436.691406 489.78125 1428.769531 497.703125 1428.769531 507.472656 L 1428.769531 1278.332031 C 1428.769531 1298.277344 1412.539062 1314.507812 1392.585938 1314.507812 L 107.058594 1314.507812 C 87.109375 1314.507812 70.878906 1298.277344 70.878906 1278.332031 L 70.878906 273.109375 C 70.878906 253.160156 87.109375 236.933594 107.058594 236.933594 L 1392.585938 236.933594 C 1412.539062 236.933594 1428.769531 253.160156 1428.769531 273.109375 L 1428.769531 418.632812 L 141.867188 418.632812 C 132.097656 418.632812 124.175781 426.554688 124.175781 436.324219 C 124.175781 446.09375 132.097656 454.015625 141.867188 454.015625 L 1446.460938 454.015625 C 1456.234375 454.015625 1464.15625 446.09375 1464.15625 436.324219 Z M 1464.15625 436.324219 " fill-opacity="1" fill-rule="nonzero"/></g><path fill="#000000" d="M 1308 350.03125 C 1317.769531 350.03125 1325.691406 342.113281 1325.691406 332.339844 C 1325.691406 322.570312 1317.769531 314.648438 1308 314.648438 L 577.421875 314.648438 C 567.652344 314.648438 559.726562 322.570312 559.726562 332.339844 C 559.726562 342.113281 567.652344 350.03125 577.421875 350.03125 Z M 1308 350.03125 " fill-opacity="1" fill-rule="nonzero"/><path fill="#000000" d="M 211.097656 332.339844 C 211.097656 333.210938 211.054688 334.078125 210.96875 334.941406 C 210.882812 335.808594 210.757812 336.664062 210.585938 337.519531 C 210.417969 338.371094 210.207031 339.210938 209.953125 340.042969 C 209.703125 340.875 209.410156 341.695312 209.078125 342.496094 C 208.746094 343.300781 208.375 344.085938 207.964844 344.851562 C 207.554688 345.617188 207.109375 346.363281 206.625 347.085938 C 206.140625 347.808594 205.625 348.503906 205.074219 349.175781 C 204.523438 349.847656 203.9375 350.492188 203.324219 351.105469 C 202.710938 351.71875 202.066406 352.304688 201.394531 352.855469 C 200.722656 353.40625 200.023438 353.921875 199.300781 354.40625 C 198.578125 354.890625 197.835938 355.335938 197.066406 355.746094 C 196.300781 356.15625 195.515625 356.527344 194.714844 356.859375 C 193.910156 357.191406 193.09375 357.484375 192.261719 357.734375 C 191.429688 357.988281 190.585938 358.199219 189.734375 358.367188 C 188.882812 358.539062 188.023438 358.664062 187.160156 358.75 C 186.292969 358.835938 185.425781 358.878906 184.558594 358.878906 C 183.6875 358.878906 182.820312 358.835938 181.957031 358.75 C 181.089844 358.664062 180.230469 358.539062 179.378906 358.367188 C 178.527344 358.199219 177.683594 357.988281 176.851562 357.734375 C 176.019531 357.484375 175.203125 357.191406 174.402344 356.859375 C 173.597656 356.527344 172.8125 356.15625 172.046875 355.746094 C 171.28125 355.335938 170.535156 354.890625 169.8125 354.40625 C 169.089844 353.921875 168.390625 353.40625 167.71875 352.855469 C 167.046875 352.304688 166.40625 351.71875 165.789062 351.105469 C 165.175781 350.492188 164.59375 349.847656 164.042969 349.175781 C 163.488281 348.503906 162.972656 347.808594 162.488281 347.085938 C 162.007812 346.363281 161.5625 345.617188 161.152344 344.851562 C 160.742188 344.085938 160.371094 343.300781 160.039062 342.496094 C 159.703125 341.695312 159.414062 340.875 159.160156 340.042969 C 158.90625 339.210938 158.695312 338.371094 158.527344 337.519531 C 158.355469 336.664062 158.230469 335.808594 158.144531 334.941406 C 158.058594 334.078125 158.015625 333.210938 158.015625 332.339844 C 158.015625 331.472656 158.058594 330.605469 158.144531 329.738281 C 158.230469 328.875 158.355469 328.015625 158.527344 327.164062 C 158.695312 326.3125 158.90625 325.46875 159.160156 324.636719 C 159.414062 323.804688 159.703125 322.988281 160.039062 322.183594 C 160.371094 321.382812 160.742188 320.597656 161.152344 319.832031 C 161.5625 319.066406 162.007812 318.320312 162.488281 317.597656 C 162.972656 316.875 163.488281 316.175781 164.042969 315.503906 C 164.59375 314.832031 165.175781 314.191406 165.789062 313.574219 C 166.40625 312.960938 167.046875 312.378906 167.71875 311.828125 C 168.390625 311.277344 169.089844 310.757812 169.8125 310.277344 C 170.535156 309.792969 171.28125 309.347656 172.046875 308.9375 C 172.8125 308.527344 173.597656 308.15625 174.402344 307.824219 C 175.203125 307.492188 176.019531 307.199219 176.851562 306.945312 C 177.683594 306.695312 178.527344 306.484375 179.378906 306.3125 C 180.230469 306.144531 181.089844 306.015625 181.957031 305.929688 C 182.820312 305.847656 183.6875 305.804688 184.558594 305.804688 C 185.425781 305.804688 186.292969 305.847656 187.160156 305.929688 C 188.023438 306.015625 188.882812 306.144531 189.734375 306.3125 C 190.585938 306.484375 191.429688 306.695312 192.261719 306.945312 C 193.09375 307.199219 193.910156 307.492188 194.714844 307.824219 C 195.515625 308.15625 196.300781 308.527344 197.066406 308.9375 C 197.835938 309.347656 198.578125 309.792969 199.300781 310.277344 C 200.023438 310.757812 200.722656 311.277344 201.394531 311.828125 C 202.066406 312.378906 202.710938 312.960938 203.324219 313.574219 C 203.9375 314.191406 204.523438 314.832031 205.074219 315.503906 C 205.625 316.175781 206.140625 316.875 206.625 317.597656 C 207.109375 318.320312 207.554688 319.066406 207.964844 319.832031 C 208.375 320.597656 208.746094 321.382812 209.078125 322.183594 C 209.410156 322.988281 209.703125 323.804688 209.953125 324.636719 C 210.207031 325.46875 210.417969 326.3125 210.585938 327.164062 C 210.757812 328.015625 210.882812 328.875 210.96875 329.738281 C 211.054688 330.605469 211.097656 331.472656 211.097656 332.339844 Z M 211.097656 332.339844 " fill-opacity="1" fill-rule="nonzero"/><path fill="#000000" d="M 317.816406 332.339844 C 317.816406 333.210938 317.773438 334.078125 317.6875 334.941406 C 317.601562 335.808594 317.476562 336.664062 317.304688 337.519531 C 317.136719 338.371094 316.925781 339.210938 316.671875 340.042969 C 316.421875 340.875 316.128906 341.695312 315.796875 342.496094 C 315.464844 343.300781 315.089844 344.085938 314.683594 344.851562 C 314.273438 345.617188 313.824219 346.363281 313.34375 347.085938 C 312.859375 347.808594 312.34375 348.503906 311.792969 349.175781 C 311.238281 349.847656 310.65625 350.492188 310.042969 351.105469 C 309.425781 351.71875 308.785156 352.304688 308.113281 352.855469 C 307.441406 353.40625 306.742188 353.921875 306.019531 354.40625 C 305.296875 354.890625 304.554688 355.335938 303.785156 355.746094 C 303.019531 356.15625 302.234375 356.527344 301.433594 356.859375 C 300.628906 357.191406 299.8125 357.484375 298.980469 357.734375 C 298.148438 357.988281 297.304688 358.199219 296.453125 358.367188 C 295.601562 358.539062 294.742188 358.664062 293.875 358.75 C 293.011719 358.835938 292.144531 358.878906 291.277344 358.878906 C 290.40625 358.878906 289.539062 358.835938 288.675781 358.75 C 287.808594 358.664062 286.949219 358.539062 286.097656 358.367188 C 285.246094 358.199219 284.402344 357.988281 283.570312 357.734375 C 282.738281 357.484375 281.921875 357.191406 281.117188 356.859375 C 280.316406 356.527344 279.53125 356.15625 278.765625 355.746094 C 277.996094 355.335938 277.253906 354.890625 276.53125 354.40625 C 275.808594 353.921875 275.109375 353.40625 274.4375 352.855469 C 273.765625 352.304688 273.125 351.71875 272.507812 351.105469 C 271.894531 350.492188 271.3125 349.847656 270.757812 349.175781 C 270.207031 348.503906 269.691406 347.808594 269.207031 347.085938 C 268.726562 346.363281 268.277344 345.617188 267.867188 344.851562 C 267.460938 344.085938 267.089844 343.300781 266.753906 342.496094 C 266.421875 341.695312 266.128906 340.875 265.878906 340.042969 C 265.625 339.210938 265.414062 338.371094 265.246094 337.519531 C 265.074219 336.664062 264.949219 335.808594 264.863281 334.941406 C 264.777344 334.078125 264.734375 333.210938 264.734375 332.339844 C 264.734375 331.472656 264.777344 330.605469 264.863281 329.738281 C 264.949219 328.875 265.074219 328.015625 265.246094 327.164062 C 265.414062 326.3125 265.625 325.46875 265.878906 324.636719 C 266.128906 323.804688 266.421875 322.988281 266.753906 322.183594 C 267.089844 321.382812 267.460938 320.597656 267.871094 319.832031 C 268.277344 319.066406 268.726562 318.320312 269.207031 317.597656 C 269.691406 316.875 270.207031 316.175781 270.757812 315.503906 C 271.3125 314.832031 271.894531 314.191406 272.507812 313.574219 C 273.125 312.960938 273.765625 312.378906 274.4375 311.828125 C 275.109375 311.277344 275.808594 310.757812 276.53125 310.277344 C 277.253906 309.792969 277.996094 309.347656 278.765625 308.9375 C 279.53125 308.527344 280.316406 308.15625 281.117188 307.824219 C 281.921875 307.492188 282.738281 307.199219 283.570312 306.945312 C 284.402344 306.695312 285.246094 306.484375 286.097656 306.3125 C 286.949219 306.144531 287.808594 306.015625 288.675781 305.929688 C 289.539062 305.847656 290.40625 305.804688 291.277344 305.804688 C 292.144531 305.804688 293.011719 305.847656 293.878906 305.929688 C 294.742188 306.015625 295.601562 306.144531 296.453125 306.3125 C 297.304688 306.484375 298.148438 306.695312 298.980469 306.945312 C 299.8125 307.199219 300.628906 307.492188 301.433594 307.824219 C 302.234375 308.15625 303.019531 308.527344 303.785156 308.9375 C 304.554688 309.347656 305.296875 309.792969 306.019531 310.277344 C 306.742188 310.757812 307.441406 311.277344 308.113281 311.828125 C 308.785156 312.378906 309.425781 312.960938 310.042969 313.574219 C 310.65625 314.191406 311.238281 314.832031 311.792969 315.503906 C 312.34375 316.175781 312.859375 316.875 313.34375 317.597656 C 313.824219 318.320312 314.273438 319.066406 314.683594 319.832031 C 315.089844 320.597656 315.464844 321.382812 315.796875 322.183594 C 316.128906 322.988281 316.421875 323.804688 316.671875 324.636719 C 316.925781 325.46875 317.136719 326.3125 317.304688 327.164062 C 317.476562 328.015625 317.601562 328.875 317.6875 329.738281 C 317.773438 330.605469 317.816406 331.472656 317.816406 332.339844 Z M 317.816406 332.339844 " fill-opacity="1" fill-rule="nonzero"/><path fill="#000000" d="M 424.53125 332.339844 C 424.53125 333.210938 424.488281 334.078125 424.402344 334.941406 C 424.316406 335.808594 424.191406 336.664062 424.019531 337.519531 C 423.851562 338.371094 423.640625 339.210938 423.386719 340.042969 C 423.136719 340.875 422.84375 341.695312 422.511719 342.496094 C 422.179688 343.300781 421.808594 344.085938 421.398438 344.851562 C 420.988281 345.617188 420.542969 346.363281 420.058594 347.085938 C 419.574219 347.808594 419.058594 348.503906 418.507812 349.175781 C 417.957031 349.847656 417.371094 350.492188 416.757812 351.105469 C 416.144531 351.71875 415.5 352.304688 414.828125 352.855469 C 414.15625 353.40625 413.457031 353.921875 412.734375 354.40625 C 412.011719 354.890625 411.269531 355.335938 410.5 355.746094 C 409.734375 356.15625 408.949219 356.527344 408.148438 356.859375 C 407.34375 357.191406 406.527344 357.484375 405.695312 357.734375 C 404.863281 357.988281 404.019531 358.199219 403.167969 358.367188 C 402.316406 358.539062 401.457031 358.664062 400.59375 358.75 C 399.726562 358.835938 398.859375 358.878906 397.992188 358.878906 C 397.121094 358.878906 396.253906 358.835938 395.390625 358.75 C 394.523438 358.664062 393.664062 358.539062 392.8125 358.367188 C 391.960938 358.199219 391.117188 357.988281 390.285156 357.734375 C 389.453125 357.484375 388.636719 357.191406 387.835938 356.859375 C 387.03125 356.527344 386.246094 356.15625 385.480469 355.746094 C 384.714844 355.335938 383.96875 354.890625 383.246094 354.40625 C 382.523438 353.921875 381.824219 353.40625 381.152344 352.855469 C 380.480469 352.304688 379.839844 351.71875 379.222656 351.105469 C 378.609375 350.492188 378.027344 349.847656 377.476562 349.175781 C 376.921875 348.503906 376.40625 347.808594 375.921875 347.085938 C 375.441406 346.363281 374.996094 345.617188 374.585938 344.851562 C 374.175781 344.085938 373.804688 343.300781 373.472656 342.496094 C 373.136719 341.695312 372.847656 340.875 372.59375 340.042969 C 372.339844 339.210938 372.128906 338.371094 371.960938 337.519531 C 371.792969 336.664062 371.664062 335.808594 371.578125 334.941406 C 371.492188 334.078125 371.449219 333.210938 371.449219 332.339844 C 371.449219 331.472656 371.492188 330.605469 371.578125 329.738281 C 371.664062 328.875 371.792969 328.015625 371.960938 327.164062 C 372.128906 326.3125 372.339844 325.46875 372.59375 324.636719 C 372.847656 323.804688 373.136719 322.988281 373.472656 322.183594 C 373.804688 321.382812 374.175781 320.597656 374.585938 319.832031 C 374.996094 319.066406 375.441406 318.320312 375.921875 317.597656 C 376.40625 316.875 376.921875 316.175781 377.476562 315.503906 C 378.027344 314.832031 378.609375 314.191406 379.222656 313.574219 C 379.839844 312.960938 380.480469 312.378906 381.152344 311.828125 C 381.824219 311.277344 382.523438 310.757812 383.246094 310.277344 C 383.96875 309.792969 384.714844 309.347656 385.480469 308.9375 C 386.246094 308.527344 387.03125 308.15625 387.835938 307.824219 C 388.636719 307.492188 389.453125 307.199219 390.285156 306.945312 C 391.117188 306.695312 391.960938 306.484375 392.8125 306.3125 C 393.664062 306.144531 394.523438 306.015625 395.390625 305.929688 C 396.253906 305.847656 397.121094 305.804688 397.992188 305.804688 C 398.859375 305.804688 399.726562 305.847656 400.59375 305.929688 C 401.457031 306.015625 402.316406 306.144531 403.167969 306.3125 C 404.019531 306.484375 404.863281 306.695312 405.695312 306.945312 C 406.527344 307.199219 407.34375 307.492188 408.148438 307.824219 C 408.949219 308.15625 409.734375 308.527344 410.5 308.9375 C 411.269531 309.347656 412.011719 309.792969 412.734375 310.277344 C 413.457031 310.757812 414.15625 311.277344 414.828125 311.828125 C 415.5 312.378906 416.144531 312.960938 416.757812 313.574219 C 417.371094 314.191406 417.957031 314.832031 418.507812 315.503906 C 419.058594 316.175781 419.574219 316.875 420.058594 317.597656 C 420.542969 318.320312 420.988281 319.066406 421.398438 319.832031 C 421.808594 320.597656 422.179688 321.382812 422.511719 322.183594 C 422.84375 322.988281 423.136719 323.804688 423.386719 324.636719 C 423.640625 325.46875 423.851562 326.3125 424.019531 327.164062 C 424.191406 328.015625 424.316406 328.875 424.402344 329.738281 C 424.488281 330.605469 424.53125 331.472656 424.53125 332.339844 Z M 424.53125 332.339844 " fill-opacity="1" fill-rule="nonzero"/><path fill="#000000" d="M 993.816406 1110.714844 C 996.765625 1120.03125 1006.714844 1125.191406 1016.023438 1122.242188 L 1142.738281 1082.136719 C 1155.871094 1077.980469 1164.941406 1066.410156 1165.839844 1052.664062 C 1166.742188 1038.917969 1159.257812 1026.265625 1146.777344 1020.433594 L 849.113281 881.300781 C 849.59375 871.066406 849.84375 860.707031 849.84375 850.363281 C 849.84375 813.753906 846.828125 778.257812 841.136719 745.597656 C 866.484375 734.5625 890.464844 719.476562 912.0625 700.261719 C 946.273438 740.867188 966.941406 793.238281 966.941406 850.363281 C 966.941406 860.132812 974.863281 868.054688 984.632812 868.054688 C 994.40625 868.054688 1002.328125 860.132812 1002.328125 850.363281 C 1002.328125 702.179688 881.761719 581.625 733.566406 581.625 C 585.367188 581.625 464.804688 702.179688 464.804688 850.363281 C 464.804688 922.925781 493.726562 988.851562 540.636719 1037.253906 C 540.984375 1037.660156 541.269531 1038.097656 541.660156 1038.476562 C 541.90625 1038.71875 542.191406 1038.886719 542.449219 1039.109375 C 591.203125 1088.464844 658.871094 1119.101562 733.566406 1119.101562 C 775.933594 1119.101562 817.523438 1109.125 854.992188 1090.140625 L 925.734375 1241.453125 C 931.25 1253.257812 942.867188 1260.59375 955.742188 1260.589844 C 956.480469 1260.589844 957.222656 1260.566406 957.96875 1260.519531 C 971.71875 1259.617188 983.289062 1250.550781 987.441406 1237.417969 L 1001.503906 1193.011719 C 1004.453125 1183.695312 999.289062 1173.753906 989.972656 1170.804688 C 980.664062 1167.851562 970.714844 1173.015625 967.765625 1182.332031 L 955.40625 1221.371094 L 879.035156 1058.007812 C 879.027344 1057.988281 879.015625 1057.96875 879.007812 1057.949219 L 805.054688 899.765625 L 1126.6875 1050.105469 L 1005.347656 1088.507812 C 996.03125 1091.457031 990.867188 1101.398438 993.816406 1110.714844 Z M 680.320312 679.3125 C 695.640625 640.300781 715.546875 617.007812 733.566406 617.007812 C 751.582031 617.007812 771.484375 640.300781 786.804688 679.3125 C 792.035156 692.625 796.550781 707.285156 800.355469 722.953125 C 756.84375 735.871094 710.28125 735.871094 666.769531 722.953125 C 670.574219 707.285156 675.09375 692.625 680.320312 679.3125 Z M 633.617188 710.25 C 614.527344 701.226562 596.433594 689.449219 579.898438 674.957031 C 604.824219 653.097656 634.414062 636.449219 666.984375 626.738281 C 652.945312 648.875 641.78125 677.773438 633.617188 710.25 Z M 819.746094 666.378906 C 813.785156 651.203125 807.121094 637.929688 799.871094 626.660156 C 832.546875 636.359375 862.234375 653.035156 887.234375 674.957031 C 870.730469 689.417969 852.675781 701.175781 833.625 710.195312 C 829.664062 694.578125 825.042969 679.871094 819.746094 666.378906 Z M 555.0625 700.261719 C 576.703125 719.511719 600.734375 734.621094 626.132812 745.660156 C 620.277344 779.222656 617.28125 815.089844 617.28125 850.363281 C 617.28125 886.886719 620.285156 922.300781 625.949219 954.898438 C 600.296875 966.105469 576.398438 981.390625 555.039062 1000.433594 C 520.847656 959.828125 500.191406 907.472656 500.191406 850.363281 C 500.191406 793.238281 520.855469 740.871094 555.0625 700.261719 Z M 647.382812 1034.34375 C 653.34375 1049.519531 660.007812 1062.796875 667.257812 1074.066406 C 634.578125 1064.363281 604.894531 1047.691406 579.894531 1025.765625 C 596.234375 1011.414062 614.226562 999.53125 633.46875 990.382812 C 637.433594 1006.054688 642.066406 1020.8125 647.382812 1034.34375 Z M 770.433594 909.269531 L 840.007812 1058.085938 C 807.226562 1074.894531 770.742188 1083.714844 733.566406 1083.714844 C 715.546875 1083.714844 695.640625 1060.425781 680.320312 1021.410156 C 675.078125 1008.066406 670.550781 993.363281 666.738281 977.648438 C 688.136719 971.292969 710.574219 967.964844 733.566406 967.964844 C 743.335938 967.964844 751.257812 960.042969 751.257812 950.273438 C 751.257812 940.503906 743.335938 932.582031 733.566406 932.582031 C 708.214844 932.582031 683.433594 936.058594 659.746094 942.777344 C 655.105469 913.917969 652.667969 882.65625 652.667969 850.363281 C 652.667969 817.980469 655.117188 786.636719 659.78125 757.714844 C 683.863281 764.546875 708.707031 768.015625 733.566406 768.015625 C 758.421875 768.015625 783.265625 764.546875 807.347656 757.714844 C 812.011719 786.636719 814.457031 817.980469 814.457031 850.363281 C 814.457031 855.25 814.332031 860.128906 814.21875 865.003906 C 801.488281 859.222656 786.941406 861.84375 777.03125 871.75 C 767.039062 881.738281 764.449219 896.46875 770.433594 909.269531 Z M 770.433594 909.269531 " fill-opacity="1" fill-rule="nonzero"/><g clip-path="url(#9c11f740e0)"><path fill="#000000" d="M 433.207031 391.808594 C 400.050781 391.808594 373.070312 364.890625 373.070312 331.808594 C 373.070312 298.722656 400.050781 271.808594 433.207031 271.808594 C 466.367188 271.808594 493.34375 298.722656 493.34375 331.808594 C 493.34375 333.167969 493.300781 334.546875 493.207031 335.90625 C 493.085938 337.703125 491.527344 339.066406 489.726562 338.9375 C 487.925781 338.816406 486.5625 337.261719 486.683594 335.464844 C 486.765625 334.253906 486.808594 333.023438 486.808594 331.808594 C 486.808594 302.320312 462.761719 278.328125 433.207031 278.328125 C 403.652344 278.328125 379.609375 302.320312 379.609375 331.808594 C 379.609375 361.292969 403.652344 385.285156 433.207031 385.285156 C 434.015625 385.285156 434.828125 385.265625 435.625 385.230469 C 437.4375 385.144531 438.957031 386.546875 439.035156 388.34375 C 439.117188 390.144531 437.71875 391.667969 435.914062 391.746094 C 435.023438 391.789062 434.113281 391.808594 433.207031 391.808594 Z M 433.207031 391.808594 " fill-opacity="1" fill-rule="nonzero"/></g><g clip-path="url(#3340135ae8)"><path fill="#000000" d="M 433.207031 391.808594 C 423.976562 391.808594 415.46875 385.285156 409.253906 373.441406 C 403.386719 362.265625 400.15625 347.480469 400.15625 331.808594 C 400.15625 316.132812 403.386719 301.347656 409.253906 290.171875 C 415.46875 278.328125 423.976562 271.804688 433.207031 271.804688 C 442.4375 271.804688 450.945312 278.328125 457.164062 290.171875 C 463.03125 301.347656 466.261719 316.132812 466.261719 331.808594 C 466.261719 335.652344 466.0625 339.492188 465.675781 343.230469 C 465.488281 345.023438 463.875 346.320312 462.085938 346.136719 C 460.289062 345.953125 458.984375 344.347656 459.171875 342.558594 C 459.539062 339.042969 459.722656 335.425781 459.722656 331.808594 C 459.722656 302.820312 447.582031 278.328125 433.210938 278.328125 C 418.835938 278.328125 406.695312 302.820312 406.695312 331.808594 C 406.695312 360.792969 418.835938 385.285156 433.210938 385.285156 C 435.015625 385.285156 436.476562 386.746094 436.476562 388.546875 C 436.476562 390.347656 435.015625 391.808594 433.210938 391.808594 Z M 433.207031 391.808594 " fill-opacity="1" fill-rule="nonzero"/></g><g clip-path="url(#3ebb21b75d)"><path fill="#000000" d="M 433.207031 391.808594 C 431.402344 391.808594 429.941406 390.347656 429.941406 388.546875 L 429.941406 275.066406 C 429.941406 273.265625 431.402344 271.808594 433.207031 271.808594 C 435.015625 271.808594 436.476562 273.265625 436.476562 275.066406 L 436.476562 388.546875 C 436.476562 390.347656 435.015625 391.808594 433.207031 391.808594 Z M 433.207031 391.808594 " fill-opacity="1" fill-rule="nonzero"/></g><path fill="#000000" d="M 488.136719 337.003906 L 378.277344 337.003906 C 376.472656 337.003906 375.011719 335.542969 375.011719 333.742188 C 375.011719 331.941406 376.472656 330.480469 378.277344 330.480469 L 488.136719 330.480469 C 489.941406 330.480469 491.40625 331.941406 491.40625 333.742188 C 491.40625 335.542969 489.941406 337.003906 488.136719 337.003906 Z M 488.136719 337.003906 " fill-opacity="1" fill-rule="nonzero"/><path fill="#000000" d="M 440.371094 366.273438 L 386.273438 366.273438 C 384.464844 366.273438 383.003906 364.816406 383.003906 363.011719 C 383.003906 361.210938 384.46875 359.753906 386.273438 359.753906 L 440.371094 359.753906 C 442.179688 359.753906 443.640625 361.210938 443.640625 363.011719 C 443.640625 364.816406 442.179688 366.273438 440.371094 366.273438 Z M 440.371094 366.273438 " fill-opacity="1" fill-rule="nonzero"/><path fill="#000000" d="M 482.453125 307.730469 L 383.964844 307.730469 C 382.160156 307.730469 380.695312 306.269531 380.695312 304.46875 C 380.695312 302.667969 382.160156 301.207031 383.964844 301.207031 L 482.453125 301.207031 C 484.257812 301.207031 485.722656 302.667969 485.722656 304.46875 C 485.722656 306.269531 484.257812 307.730469 482.453125 307.730469 Z M 482.453125 307.730469 " fill-opacity="1" fill-rule="nonzero"/><path fill="#000000" d="M 472.429688 380.753906 C 469.539062 380.753906 466.769531 379.75 464.527344 377.875 L 464.210938 377.609375 C 459.003906 373.25 458.320312 365.476562 462.691406 360.277344 C 463.851562 358.898438 465.914062 358.71875 467.296875 359.875 C 468.679688 361.035156 468.859375 363.09375 467.699219 364.472656 C 465.644531 366.910156 465.964844 370.5625 468.410156 372.613281 L 468.730469 372.875 C 469.914062 373.867188 471.410156 374.34375 472.957031 374.207031 C 474.496094 374.074219 475.894531 373.347656 476.886719 372.164062 L 490.917969 355.484375 C 492.96875 353.042969 492.648438 349.390625 490.203125 347.34375 L 489.886719 347.078125 C 488.699219 346.085938 487.195312 345.613281 485.660156 345.746094 C 484.117188 345.882812 482.722656 346.609375 481.726562 347.789062 L 479.347656 350.675781 C 478.199219 352.066406 476.140625 352.261719 474.746094 351.117188 C 473.351562 349.972656 473.152344 347.917969 474.300781 346.527344 L 476.703125 343.621094 C 478.835938 341.082031 481.808594 339.535156 485.089844 339.25 C 488.371094 338.960938 491.566406 339.96875 494.089844 342.082031 L 494.40625 342.347656 C 496.929688 344.460938 498.476562 347.425781 498.761719 350.699219 C 499.050781 353.972656 498.042969 357.160156 495.925781 359.675781 L 481.894531 376.359375 C 479.777344 378.875 476.804688 380.417969 473.523438 380.707031 C 473.160156 380.738281 472.792969 380.753906 472.429688 380.753906 Z M 472.429688 380.753906 " fill-opacity="1" fill-rule="nonzero"/><g clip-path="url(#564be013d4)"><path fill="#000000" d="M 451.046875 391.800781 C 448.25 391.800781 445.4375 390.859375 443.132812 388.929688 L 442.816406 388.664062 C 437.609375 384.304688 436.925781 376.53125 441.296875 371.335938 L 455.324219 354.652344 C 459.695312 349.457031 467.488281 348.777344 472.695312 353.136719 L 473.011719 353.402344 C 478.21875 357.761719 478.898438 365.535156 474.53125 370.730469 C 473.371094 372.113281 471.308594 372.292969 469.925781 371.132812 C 468.542969 369.976562 468.363281 367.917969 469.523438 366.539062 C 471.574219 364.097656 471.253906 360.449219 468.808594 358.398438 L 468.492188 358.132812 C 466.046875 356.085938 462.386719 356.40625 460.332031 358.847656 L 446.304688 375.527344 C 444.25 377.96875 444.570312 381.621094 447.019531 383.667969 L 447.335938 383.933594 C 449.78125 385.980469 453.441406 385.664062 455.492188 383.222656 L 458.515625 379.628906 C 459.675781 378.246094 461.738281 378.070312 463.121094 379.226562 C 464.503906 380.382812 464.683594 382.441406 463.523438 383.820312 L 460.5 387.414062 C 458.066406 390.308594 454.570312 391.800781 451.046875 391.800781 Z M 451.046875 391.800781 " fill-opacity="1" fill-rule="nonzero"/></g></svg>